<svg width="100" height="100" viewBox="0 0 100 100" fill="none" xmlns="http://www.w3.org/2000/svg">
<rect width="100" height="100" rx="20" fill="#E4C59E"/>
<mask id="mask0_193_4" style="mask-type:alpha" maskUnits="userSpaceOnUse" x="0" y="0" width="100" height="100">
<rect width="100" height="100" rx="20" fill="white"/>
</mask>
<g mask="url(#mask0_193_4)">
<path d="M28.712 77.528C28.008 77.528 27.464 77.336 27.08 76.952C26.44 76.248 26.12 75.576 26.12 74.936C26.12 74.616 26.216 74.264 26.408 73.88C26.536 73.56 26.76 73.112 27.08 72.536C27.464 71.96 27.784 71.448 28.04 71C28.232 70.68 28.456 70.456 28.712 70.328C28.968 70.2 29.16 70.04 29.288 69.848C29.352 69.784 29.608 69.4 30.056 68.696C30.504 67.928 30.984 67.064 31.496 66.104C32.072 65.08 32.584 64.152 33.032 63.32C33.48 62.488 33.768 61.976 33.896 61.784C34.28 61.656 34.504 61.432 34.568 61.112C34.696 60.792 34.792 60.504 34.856 60.248C34.984 59.864 35.304 59.416 35.816 58.904C36.328 58.392 36.68 57.784 36.872 57.08C36.68 56.76 36.68 56.632 36.872 56.696C37.128 56.76 37.224 56.696 37.16 56.504L37.352 56.12C37.8 55.8 38.12 55.384 38.312 54.872C38.568 54.36 38.728 53.88 38.792 53.432C39.112 53.048 39.464 52.664 39.848 52.28C40.232 51.896 40.52 51.48 40.712 51.032C40.776 50.904 40.776 50.808 40.712 50.744C40.712 50.616 40.744 50.52 40.808 50.456V50.36C41.896 48.504 42.984 46.52 44.072 44.408C45.224 42.296 46.184 40.152 46.952 37.976C47.72 35.736 48.104 33.624 48.104 31.64C48.104 29.848 47.656 28.344 46.76 27.128C46.568 27.128 46.376 27.128 46.184 27.128C45.992 27.064 45.832 27.032 45.704 27.032C45.448 26.968 44.968 26.904 44.264 26.84C43.624 26.776 42.984 26.68 42.344 26.552C41.768 26.424 41.448 26.36 41.384 26.36C41.128 26.296 40.84 26.264 40.52 26.264C40.2 26.2 39.848 26.168 39.464 26.168C39.016 26.168 38.536 26.2 38.024 26.264C37.576 26.328 37.16 26.424 36.776 26.552L34.184 26.84C33.992 26.776 33.64 26.744 33.128 26.744C31.784 26.744 30.248 26.968 28.52 27.416C26.792 27.8 25.64 28.216 25.064 28.664L24.392 29.144C24.2 29.272 23.944 29.368 23.624 29.432C23.304 29.496 23.016 29.592 22.76 29.72C22.12 29.976 21.544 29.912 21.032 29.528C20.584 29.144 20.36 28.696 20.36 28.184C20.36 27.672 20.616 27.224 21.128 26.84C22.536 25.752 24.04 24.888 25.64 24.248C27.24 23.544 28.904 22.968 30.632 22.52C30.76 22.456 30.92 22.392 31.112 22.328C31.368 22.264 31.592 22.232 31.784 22.232C32.488 22.232 32.936 22.232 33.128 22.232C33.32 22.168 33.704 22.072 34.28 21.944L34.376 21.848C34.632 21.848 34.824 21.88 34.952 21.944H35.24C35.56 21.816 35.848 21.688 36.104 21.56C36.424 21.432 36.744 21.528 37.064 21.848L38.408 21.752C38.856 21.752 39.208 21.848 39.464 22.04C43.176 22.616 45.896 24.056 47.624 26.36C47.88 26.36 48.072 26.328 48.2 26.264C48.648 26.328 49.128 26.456 49.64 26.648C50.152 26.84 50.632 27.032 51.08 27.224C51.528 27.288 51.912 27.352 52.232 27.416C52.552 27.48 52.872 27.576 53.192 27.704L54.536 28.376C54.664 28.76 54.824 28.984 55.016 29.048C55.208 29.112 55.464 29.272 55.784 29.528C56.04 29.656 56.2 29.848 56.264 30.104C56.392 30.296 56.52 30.52 56.648 30.776C56.712 30.84 56.744 31 56.744 31.256C56.744 31.448 56.744 31.576 56.744 31.64C56.616 32.152 56.456 32.408 56.264 32.408C55.944 32.408 55.656 32.152 55.4 31.64C54.76 30.616 54.248 29.88 53.864 29.432C53.48 28.984 52.52 28.568 50.984 28.184C50.92 28.184 50.632 28.12 50.12 27.992C49.608 27.864 49.32 27.768 49.256 27.704C49.064 27.704 48.776 27.64 48.392 27.512C49.16 29.112 49.544 30.872 49.544 32.792C49.544 33.112 49.512 33.464 49.448 33.848C49.448 34.232 49.416 34.616 49.352 35C48.968 35.256 48.776 35.544 48.776 35.864C48.776 35.992 48.776 36.152 48.776 36.344C48.84 36.472 48.904 36.632 48.968 36.824C48.968 37.016 48.936 37.208 48.872 37.4C48.872 37.528 48.84 37.688 48.776 37.88C48.52 38.072 48.36 38.328 48.296 38.648C48.232 38.968 48.232 39.288 48.296 39.608L47.912 40.76C47.592 41.08 47.4 41.4 47.336 41.72C46.76 41.912 46.472 42.168 46.472 42.488C46.472 42.808 46.568 43.16 46.76 43.544C46.504 44.632 45.96 45.912 45.128 47.384C44.36 48.856 43.72 50.136 43.208 51.224C42.952 51.288 42.76 51.32 42.632 51.32C42.504 51.32 42.28 51.384 41.96 51.512C42.152 51.704 42.344 51.864 42.536 51.992C42.728 52.12 42.696 52.408 42.44 52.856H42.248C41.8 52.856 41.576 53.016 41.576 53.336C41.64 53.592 41.672 53.88 41.672 54.2C41.416 54.84 41.032 55.704 40.52 56.792C40.008 57.816 39.464 58.808 38.888 59.768C38.312 60.728 37.8 61.464 37.352 61.976C37.096 62.232 36.936 62.488 36.872 62.744C36.872 63 36.84 63.288 36.776 63.608C36.776 63.736 36.552 64.184 36.104 64.952C35.72 65.72 35.304 66.52 34.856 67.352C34.408 68.184 34.088 68.728 33.896 68.984C33.96 69.24 33.992 69.56 33.992 69.944C33.992 70.904 33.672 71.736 33.032 72.44C32.456 73.208 31.944 73.944 31.496 74.648C31.304 74.904 31.048 75.256 30.728 75.704C30.472 76.152 30.184 76.536 29.864 76.856L29.096 77.24C29.032 77.24 28.968 77.272 28.904 77.336C28.904 77.4 28.84 77.464 28.712 77.528ZM24.104 26.552H25.352C25.608 26.552 25.832 26.552 26.024 26.552C26.216 26.552 26.44 26.52 26.696 26.456C27.4 26.328 28.104 26.2 28.808 26.072C29.576 25.88 30.248 25.752 30.824 25.688C31.016 25.624 31.208 25.592 31.4 25.592C31.592 25.592 31.752 25.592 31.88 25.592C32.136 25.592 32.36 25.592 32.552 25.592C32.808 25.592 33.064 25.624 33.32 25.688C33.448 25.688 33.64 25.624 33.896 25.496C34.216 25.304 34.536 25.208 34.856 25.208C35.432 25.208 36.008 25.176 36.584 25.112C37.16 25.048 37.576 25.016 37.832 25.016H41.288C41.928 25.016 42.536 25.144 43.112 25.4C43.688 25.592 44.2 25.656 44.648 25.592C44.776 25.592 44.904 25.624 45.032 25.688C44.136 25.112 43.016 24.632 41.672 24.248C40.008 23.736 38.28 23.48 36.488 23.48C32.52 23.48 28.392 24.504 24.104 26.552ZM63.56 71.672C63.048 71.672 62.696 71.544 62.504 71.288C62.376 71.096 62.312 70.808 62.312 70.424C62.312 70.232 62.312 70.008 62.312 69.752C62.376 69.432 62.408 69.144 62.408 68.888C62.408 68.44 62.344 67.96 62.216 67.448C62.088 66.936 61.768 66.456 61.256 66.008C61 65.432 60.584 65.112 60.008 65.048C59.752 64.664 59.496 64.472 59.24 64.472H59.144C59.016 64.472 58.888 64.344 58.76 64.088C58.632 63.768 58.44 63.608 58.184 63.608C58.056 63.736 58.056 63.864 58.184 63.992C58.056 63.928 57.928 63.864 57.8 63.8C57.672 63.736 57.512 63.736 57.32 63.8C57.064 63.672 56.936 63.608 56.936 63.608H56.84C56.584 63.288 56.232 63.096 55.784 63.032C55.4 62.904 55.048 62.904 54.728 63.032L53.576 62.744C53.128 62.488 52.712 62.328 52.328 62.264C52.136 62.264 52.008 62.36 51.944 62.552C51.88 62.68 51.688 62.68 51.368 62.552C50.92 62.36 50.536 62.328 50.216 62.456C49.576 62.456 48.936 62.456 48.296 62.456C47.72 62.392 47.112 62.392 46.472 62.456L45.608 62.552L44.84 62.648C44.584 62.712 44.328 62.744 44.072 62.744C43.816 62.744 43.56 62.744 43.304 62.744C42.664 62.744 42.28 62.712 42.152 62.648C41.704 62.456 41.224 62.104 40.712 61.592C40.2 61.016 39.944 60.504 39.944 60.056C39.944 59.736 39.976 59.352 40.04 58.904C40.104 58.456 40.328 58.104 40.712 57.848C42.056 56.76 43.528 56.216 45.128 56.216C46.6 56.216 47.688 56.312 48.392 56.504C49.096 56.696 49.736 56.984 50.312 57.368C50.952 57.688 51.816 58.04 52.904 58.424C53.992 58.744 55.08 58.904 56.168 58.904C56.936 58.904 57.704 58.872 58.472 58.808C59.304 58.68 60.072 58.584 60.776 58.52C61.16 58.456 61.576 58.424 62.024 58.424C62.472 58.36 62.888 58.296 63.272 58.232H63.56C63.752 58.232 63.912 58.264 64.04 58.328C64.232 58.392 64.456 58.392 64.712 58.328C64.84 58.328 65.064 58.264 65.384 58.136C65.704 57.944 65.928 57.848 66.056 57.848C66.184 57.848 66.28 57.848 66.344 57.848C66.472 57.784 66.6 57.752 66.728 57.752L67.112 56.696C67.24 56.312 67.368 55.928 67.496 55.544C67.624 55.096 67.688 54.648 67.688 54.2V54.104C67.752 54.04 67.816 53.784 67.88 53.336C68.008 52.824 68.072 52.568 68.072 52.568L69.032 49.976L69.32 49.304L69.416 48.536C69.544 48.28 69.608 48.088 69.608 47.96C69.928 46.872 70.344 45.816 70.856 44.792C71.432 43.768 71.848 42.712 72.104 41.624L72.296 40.856L72.584 40.28V40.184C72.712 40.056 72.744 39.96 72.68 39.896C72.68 39.768 72.68 39.672 72.68 39.608C72.616 39.608 72.552 39.576 72.488 39.512C72.488 39.448 72.488 39.416 72.488 39.416C73 39.032 73.416 38.616 73.736 38.168C74.056 37.656 74.12 37.08 73.928 36.44V36.344L74.408 34.904L74.6 34.136C74.728 33.944 74.92 33.816 75.176 33.752C75.496 33.624 75.592 33.432 75.464 33.176C74.952 32.984 74.856 32.632 75.176 32.12C75.24 32.056 75.336 32.024 75.464 32.024C75.72 32.024 76.04 31.992 76.424 31.928C76.808 31.864 77.128 31.704 77.384 31.448V31.16C77.192 30.84 76.872 30.68 76.424 30.68C76.04 30.616 75.848 30.392 75.848 30.008L76.04 29.72L76.232 28.856C76.424 27.896 77.096 27.16 78.248 26.648C79.4 26.072 80.456 25.784 81.416 25.784C81.928 25.784 82.344 25.88 82.664 26.072C82.984 26.264 83.048 26.584 82.856 27.032L81.224 30.872C81.032 31.064 80.872 31.32 80.744 31.64C80.616 31.896 80.456 32.152 80.264 32.408C80.2 32.536 80.072 32.632 79.88 32.696C79.752 32.696 79.656 32.76 79.592 32.888C79.528 33.08 79.56 33.176 79.688 33.176C79.816 33.112 79.848 33.176 79.784 33.368C79.656 33.816 79.4 34.36 79.016 35C78.696 35.576 78.408 36.056 78.152 36.44C78.088 36.44 78.024 36.472 77.96 36.536C77.704 36.536 77.576 36.376 77.576 36.056C77.576 35.736 77.48 35.544 77.288 35.48C77.288 35.544 77.256 35.608 77.192 35.672C77.192 35.736 77.192 35.832 77.192 35.96C77.192 36.216 77.224 36.472 77.288 36.728C77.416 36.984 77.448 37.272 77.384 37.592C77.256 37.656 77.192 37.848 77.192 38.168C77.192 38.36 77.096 38.488 76.904 38.552C76.712 38.552 76.584 38.68 76.52 38.936L74.696 41.912L74.312 42.68C74.184 42.936 74.024 43.192 73.832 43.448C73.64 43.704 73.448 43.992 73.256 44.312C73.064 44.632 72.968 44.824 72.968 44.888C72.968 44.888 72.872 45.048 72.68 45.368C72.616 45.496 72.552 45.688 72.488 45.944C72.424 46.2 72.328 46.424 72.2 46.616C72.2 46.616 72.072 46.584 71.816 46.52C71.56 46.456 71.432 46.456 71.432 46.52C71.304 46.712 71.24 46.936 71.24 47.192C71.24 47.32 71.24 47.48 71.24 47.672C71.304 47.8 71.368 48.024 71.432 48.344C71.432 48.6 71.4 48.76 71.336 48.824C71.208 49.08 71.144 49.272 71.144 49.4C71.144 49.528 70.984 49.784 70.664 50.168C70.344 50.488 70.184 50.712 70.184 50.84C69.992 51.48 69.896 51.928 69.896 52.184C69.896 52.376 69.768 52.792 69.512 53.432L69.032 54.68C69.032 54.68 69.032 54.808 69.032 55.064C69.032 55.32 69 55.448 68.936 55.448C68.808 55.64 68.648 55.928 68.456 56.312C68.328 56.632 68.2 56.984 68.072 57.368C68.456 57.24 68.808 57.144 69.128 57.08C69.448 56.952 69.672 56.888 69.8 56.888C70.184 56.824 70.504 56.824 70.76 56.888C71.08 56.888 71.368 56.888 71.624 56.888C71.816 56.888 71.976 56.824 72.104 56.696C72.296 56.568 72.424 56.504 72.488 56.504C72.68 56.44 72.84 56.472 72.968 56.6C73.096 56.664 73.16 56.696 73.16 56.696C73.16 56.696 73.16 56.792 73.16 56.984C73.16 57.112 73.096 57.24 72.968 57.368C72.904 57.432 72.776 57.432 72.584 57.368C72.392 57.304 72.232 57.304 72.104 57.368C71.656 57.432 71.08 57.528 70.376 57.656C69.672 57.784 68.968 57.912 68.264 58.04C68.072 58.04 67.912 58.072 67.784 58.136C67.592 58.712 67.496 59.224 67.496 59.672L67.208 60.536C67.144 60.728 67.08 60.952 67.016 61.208C66.952 61.4 66.888 61.56 66.824 61.688L66.728 62.168L66.632 62.264C66.568 62.52 66.568 62.712 66.632 62.84C66.696 62.968 66.696 63.192 66.632 63.512V64.664C67.144 65.432 67.4 66.072 67.4 66.584C67.4 67.096 67.272 67.544 67.016 67.928C66.76 68.312 66.6 68.824 66.536 69.464C66.472 69.912 66.184 70.392 65.672 70.904C65.224 71.416 64.52 71.672 63.56 71.672ZM64.04 66.104C64.168 66.104 64.296 65.944 64.424 65.624C64.616 65.304 64.84 64.728 65.096 63.896L65.192 63.128C65.256 63 65.32 62.776 65.384 62.456C65.512 62.072 65.608 61.848 65.672 61.784V61.688C65.992 61.304 66.184 60.952 66.248 60.632C66.312 60.248 66.344 59.832 66.344 59.384V59L66.536 58.328C66.216 58.392 65.768 58.52 65.192 58.712C64.616 58.904 63.976 59.032 63.272 59.096C62.12 59.224 60.872 59.416 59.528 59.672C58.248 59.928 57.096 60.088 56.072 60.152C55.88 60.152 55.656 60.184 55.4 60.248C55.144 60.248 54.952 60.216 54.824 60.152C54.632 60.024 54.536 59.896 54.536 59.768C54.472 59.512 54.312 59.416 54.056 59.48C53.864 59.544 53.768 59.576 53.768 59.576C53.704 59.576 53.608 59.64 53.48 59.768C53.416 59.832 53.32 59.864 53.192 59.864C52.936 59.864 52.712 59.896 52.52 59.96C52.392 60.024 52.2 60.056 51.944 60.056C51.688 59.992 51.432 59.928 51.176 59.864C50.92 59.8 50.696 59.768 50.504 59.768C50.248 59.832 49.96 59.896 49.64 59.96C49.384 59.96 49.096 59.992 48.776 60.056C48.712 60.056 48.648 60.056 48.584 60.056C48.584 59.992 48.552 59.96 48.488 59.96C48.168 59.96 48.008 60.12 48.008 60.44C48.008 60.888 48.296 61.016 48.872 60.824L51.176 61.112H51.848L51.944 61.208C52.072 61.272 52.2 61.336 52.328 61.4C52.52 61.464 52.712 61.528 52.904 61.592C53.416 61.784 54.088 61.912 54.92 61.976C55.816 62.04 56.488 62.168 56.936 62.36L57.992 62.84C58.248 62.904 58.44 62.936 58.568 62.936C58.696 62.936 58.888 62.968 59.144 63.032L59.624 63.608C59.88 63.672 60.04 63.672 60.104 63.608C60.168 63.544 60.296 63.576 60.488 63.704L61.448 64.28C61.64 64.6 61.896 64.824 62.216 64.952C62.536 65.08 62.728 65.144 62.792 65.144C63.112 65.272 63.336 65.464 63.464 65.72C63.656 65.976 63.848 66.104 64.04 66.104Z" fill="#803D3B"/>
<rect x="27" y="-5" width="20" height="13.7079" fill="#322C2B"/>
<rect x="27" y="-5" width="9.88764" height="6.74157" fill="#AF8260"/>
<rect x="42.0562" y="4.66293" width="4.94382" height="4.04494" fill="#AF8260"/>
<rect x="27" y="4.66293" width="4.94382" height="4.04494" fill="#AF8260"/>
<rect x="50" y="88.5238" width="16.9524" height="11.619" fill="#322C2B"/>
<rect x="53.0476" y="87" width="8.38095" height="5.71429" fill="#AF8260"/>
<rect x="65.8096" y="95.1905" width="4.19048" height="3.42857" fill="#AF8260"/>
<rect x="65.8096" y="87" width="4.19048" height="3.42857" fill="#AF8260"/>
<rect x="53.0476" y="95.1905" width="4.19048" height="3.42857" fill="#AF8260"/>
<rect x="-7" y="52" width="20" height="13.7079" fill="#322C2B"/>
<rect x="-7" y="54.9214" width="9.88764" height="6.74157" fill="#AF8260"/>
<rect x="8.05615" y="64.5843" width="4.94382" height="4.04494" fill="#AF8260"/>
<rect x="8.05615" y="54.9214" width="4.94382" height="4.04494" fill="#AF8260"/>
<rect x="90" y="36.3708" width="20" height="13.7079" fill="#322C2B"/>
<rect x="90" y="33" width="9.88764" height="6.74157" fill="#AF8260"/>
<rect x="90" y="42.6629" width="4.94382" height="4.04494" fill="#AF8260"/>
</g>
</svg>
