<svg width="125" height="43" viewBox="0 0 125 43" fill="none" xmlns="http://www.w3.org/2000/svg">
<path d="M5.1 31.4C4.73333 31.4 4.45 31.3 4.25 31.1C3.91667 30.7333 3.75 30.3833 3.75 30.05C3.75 29.8833 3.8 29.7 3.9 29.5C3.96667 29.3333 4.08333 29.1 4.25 28.8C4.45 28.5 4.61667 28.2333 4.75 28C4.85 27.8333 4.96667 27.7167 5.1 27.65C5.23333 27.5833 5.33333 27.5 5.4 27.4C5.43333 27.3667 5.56667 27.1667 5.8 26.8C6.03333 26.4 6.28333 25.95 6.55 25.45C6.85 24.9167 7.11667 24.4333 7.35 24C7.58333 23.5667 7.73333 23.3 7.8 23.2C8 23.1333 8.11667 23.0167 8.15 22.85C8.21667 22.6833 8.26667 22.5333 8.3 22.4C8.36667 22.2 8.53333 21.9667 8.8 21.7C9.06667 21.4333 9.25 21.1167 9.35 20.75C9.25 20.5833 9.25 20.5167 9.35 20.55C9.48333 20.5833 9.53333 20.55 9.5 20.45L9.6 20.25C9.83333 20.0833 10 19.8667 10.1 19.6C10.2333 19.3333 10.3167 19.0833 10.35 18.85C10.5167 18.65 10.7 18.45 10.9 18.25C11.1 18.05 11.25 17.8333 11.35 17.6C11.3833 17.5333 11.3833 17.4833 11.35 17.45C11.35 17.3833 11.3667 17.3333 11.4 17.3V17.25C11.9667 16.2833 12.5333 15.25 13.1 14.15C13.7 13.05 14.2 11.9333 14.6 10.8C15 9.63333 15.2 8.53333 15.2 7.5C15.2 6.56667 14.9667 5.78333 14.5 5.15C14.4 5.15 14.3 5.15 14.2 5.15C14.1 5.11667 14.0167 5.1 13.95 5.1C13.8167 5.06667 13.5667 5.03333 13.2 5C12.8667 4.96667 12.5333 4.91667 12.2 4.85C11.9 4.78333 11.7333 4.75 11.7 4.75C11.5667 4.71667 11.4167 4.7 11.25 4.7C11.0833 4.66667 10.9 4.65 10.7 4.65C10.4667 4.65 10.2167 4.66667 9.95 4.7C9.71667 4.73333 9.5 4.78333 9.3 4.85L7.95 5C7.85 4.96667 7.66667 4.95 7.4 4.95C6.7 4.95 5.9 5.06667 5 5.3C4.1 5.5 3.5 5.71667 3.2 5.95L2.85 6.2C2.75 6.26667 2.61667 6.31667 2.45 6.35C2.28333 6.38333 2.13333 6.43333 2 6.5C1.66667 6.63333 1.36667 6.6 1.1 6.4C0.866667 6.2 0.75 5.96667 0.75 5.7C0.75 5.43333 0.883333 5.2 1.15 5C1.88333 4.43333 2.66667 3.98333 3.5 3.65C4.33333 3.28333 5.2 2.98333 6.1 2.75C6.16667 2.71667 6.25 2.68333 6.35 2.65C6.48333 2.61667 6.6 2.6 6.7 2.6C7.06667 2.6 7.3 2.6 7.4 2.6C7.5 2.56667 7.7 2.51667 8 2.45L8.05 2.4C8.18333 2.4 8.28333 2.41667 8.35 2.45H8.5C8.66667 2.38333 8.81667 2.31667 8.95 2.25C9.11667 2.18333 9.28333 2.23333 9.45 2.4L10.15 2.35C10.3833 2.35 10.5667 2.4 10.7 2.5C12.6333 2.8 14.05 3.55 14.95 4.75C15.0833 4.75 15.1833 4.73333 15.25 4.7C15.4833 4.73333 15.7333 4.8 16 4.9C16.2667 5 16.5167 5.1 16.75 5.2C16.9833 5.23333 17.1833 5.26667 17.35 5.3C17.5167 5.33333 17.6833 5.38333 17.85 5.45L18.55 5.8C18.6167 6 18.7 6.11667 18.8 6.15C18.9 6.18333 19.0333 6.26667 19.2 6.4C19.3333 6.46667 19.4167 6.56667 19.45 6.7C19.5167 6.8 19.5833 6.91667 19.65 7.05C19.6833 7.08333 19.7 7.16667 19.7 7.3C19.7 7.4 19.7 7.46667 19.7 7.5C19.6333 7.76667 19.55 7.9 19.45 7.9C19.2833 7.9 19.1333 7.76667 19 7.5C18.6667 6.96667 18.4 6.58333 18.2 6.35C18 6.11667 17.5 5.9 16.7 5.7C16.6667 5.7 16.5167 5.66667 16.25 5.6C15.9833 5.53333 15.8333 5.48333 15.8 5.45C15.7 5.45 15.55 5.41667 15.35 5.35C15.75 6.18333 15.95 7.1 15.95 8.1C15.95 8.26667 15.9333 8.45 15.9 8.65C15.9 8.85 15.8833 9.05 15.85 9.25C15.65 9.38333 15.55 9.53333 15.55 9.7C15.55 9.76667 15.55 9.85 15.55 9.95C15.5833 10.0167 15.6167 10.1 15.65 10.2C15.65 10.3 15.6333 10.4 15.6 10.5C15.6 10.5667 15.5833 10.65 15.55 10.75C15.4167 10.85 15.3333 10.9833 15.3 11.15C15.2667 11.3167 15.2667 11.4833 15.3 11.65L15.1 12.25C14.9333 12.4167 14.8333 12.5833 14.8 12.75C14.5 12.85 14.35 12.9833 14.35 13.15C14.35 13.3167 14.4 13.5 14.5 13.7C14.3667 14.2667 14.0833 14.9333 13.65 15.7C13.25 16.4667 12.9167 17.1333 12.65 17.7C12.5167 17.7333 12.4167 17.75 12.35 17.75C12.2833 17.75 12.1667 17.7833 12 17.85C12.1 17.95 12.2 18.0333 12.3 18.1C12.4 18.1667 12.3833 18.3167 12.25 18.55H12.15C11.9167 18.55 11.8 18.6333 11.8 18.8C11.8333 18.9333 11.85 19.0833 11.85 19.25C11.7167 19.5833 11.5167 20.0333 11.25 20.6C10.9833 21.1333 10.7 21.65 10.4 22.15C10.1 22.65 9.83333 23.0333 9.6 23.3C9.46667 23.4333 9.38333 23.5667 9.35 23.7C9.35 23.8333 9.33333 23.9833 9.3 24.15C9.3 24.2167 9.18333 24.45 8.95 24.85C8.75 25.25 8.53333 25.6667 8.3 26.1C8.06667 26.5333 7.9 26.8167 7.8 26.95C7.83333 27.0833 7.85 27.25 7.85 27.45C7.85 27.95 7.68333 28.3833 7.35 28.75C7.05 29.15 6.78333 29.5333 6.55 29.9C6.45 30.0333 6.31667 30.2167 6.15 30.45C6.01667 30.6833 5.86667 30.8833 5.7 31.05L5.3 31.25C5.26667 31.25 5.23333 31.2667 5.2 31.3C5.2 31.3333 5.16667 31.3667 5.1 31.4ZM2.7 4.85H3.35C3.48333 4.85 3.6 4.85 3.7 4.85C3.8 4.85 3.91667 4.83333 4.05 4.8C4.41667 4.73333 4.78333 4.66667 5.15 4.6C5.55 4.5 5.9 4.43333 6.2 4.4C6.3 4.36667 6.4 4.35 6.5 4.35C6.6 4.35 6.68333 4.35 6.75 4.35C6.88333 4.35 7 4.35 7.1 4.35C7.23333 4.35 7.36667 4.36667 7.5 4.4C7.56667 4.4 7.66667 4.36666 7.8 4.3C7.96667 4.2 8.13333 4.15 8.3 4.15C8.6 4.15 8.9 4.13333 9.2 4.1C9.5 4.06667 9.71667 4.05 9.85 4.05H11.65C11.9833 4.05 12.3 4.11667 12.6 4.25C12.9 4.35 13.1667 4.38333 13.4 4.35C13.4667 4.35 13.5333 4.36667 13.6 4.4C13.1333 4.1 12.55 3.85 11.85 3.65C10.9833 3.38333 10.0833 3.25 9.15 3.25C7.08333 3.25 4.93333 3.78333 2.7 4.85ZM23.25 28.35C22.9833 28.35 22.8 28.2833 22.7 28.15C22.6333 28.05 22.6 27.9 22.6 27.7C22.6 27.6 22.6 27.4833 22.6 27.35C22.6333 27.1833 22.65 27.0333 22.65 26.9C22.65 26.6667 22.6167 26.4167 22.55 26.15C22.4833 25.8833 22.3167 25.6333 22.05 25.4C21.9167 25.1 21.7 24.9333 21.4 24.9C21.2667 24.7 21.1333 24.6 21 24.6H20.95C20.8833 24.6 20.8167 24.5333 20.75 24.4C20.6833 24.2333 20.5833 24.15 20.45 24.15C20.3833 24.2167 20.3833 24.2833 20.45 24.35C20.3833 24.3167 20.3167 24.2833 20.25 24.25C20.1833 24.2167 20.1 24.2167 20 24.25C19.8667 24.1833 19.8 24.15 19.8 24.15H19.75C19.6167 23.9833 19.4333 23.8833 19.2 23.85C19 23.7833 18.8167 23.7833 18.65 23.85L18.05 23.7C17.8167 23.5667 17.6 23.4833 17.4 23.45C17.3 23.45 17.2333 23.5 17.2 23.6C17.1667 23.6667 17.0667 23.6667 16.9 23.6C16.6667 23.5 16.4667 23.4833 16.3 23.55C15.9667 23.55 15.6333 23.55 15.3 23.55C15 23.5167 14.6833 23.5167 14.35 23.55L13.9 23.6L13.5 23.65C13.3667 23.6833 13.2333 23.7 13.1 23.7C12.9667 23.7 12.8333 23.7 12.7 23.7C12.3667 23.7 12.1667 23.6833 12.1 23.65C11.8667 23.55 11.6167 23.3667 11.35 23.1C11.0833 22.8 10.95 22.5333 10.95 22.3C10.95 22.1333 10.9667 21.9333 11 21.7C11.0333 21.4667 11.15 21.2833 11.35 21.15C12.05 20.5833 12.8167 20.3 13.65 20.3C14.4167 20.3 14.9833 20.35 15.35 20.45C15.7167 20.55 16.05 20.7 16.35 20.9C16.6833 21.0667 17.1333 21.25 17.7 21.45C18.2667 21.6167 18.8333 21.7 19.4 21.7C19.8 21.7 20.2 21.6833 20.6 21.65C21.0333 21.5833 21.4333 21.5333 21.8 21.5C22 21.4667 22.2167 21.45 22.45 21.45C22.6833 21.4167 22.9 21.3833 23.1 21.35H23.25C23.35 21.35 23.4333 21.3667 23.5 21.4C23.6 21.4333 23.7167 21.4333 23.85 21.4C23.9167 21.4 24.0333 21.3667 24.2 21.3C24.3667 21.2 24.4833 21.15 24.55 21.15C24.6167 21.15 24.6667 21.15 24.7 21.15C24.7667 21.1167 24.8333 21.1 24.9 21.1L25.1 20.55C25.1667 20.35 25.2333 20.15 25.3 19.95C25.3667 19.7167 25.4 19.4833 25.4 19.25V19.2C25.4333 19.1667 25.4667 19.0333 25.5 18.8C25.5667 18.5333 25.6 18.4 25.6 18.4L26.1 17.05L26.25 16.7L26.3 16.3C26.3667 16.1667 26.4 16.0667 26.4 16C26.5667 15.4333 26.7833 14.8833 27.05 14.35C27.35 13.8167 27.5667 13.2667 27.7 12.7L27.8 12.3L27.95 12V11.95C28.0167 11.8833 28.0333 11.8333 28 11.8C28 11.7333 28 11.6833 28 11.65C27.9667 11.65 27.9333 11.6333 27.9 11.6C27.9 11.5667 27.9 11.55 27.9 11.55C28.1667 11.35 28.3833 11.1333 28.55 10.9C28.7167 10.6333 28.75 10.3333 28.65 10V9.95L28.9 9.2L29 8.8C29.0667 8.7 29.1667 8.63333 29.3 8.6C29.4667 8.53333 29.5167 8.43333 29.45 8.3C29.1833 8.2 29.1333 8.01667 29.3 7.75C29.3333 7.71667 29.3833 7.7 29.45 7.7C29.5833 7.7 29.75 7.68333 29.95 7.65C30.15 7.61667 30.3167 7.53333 30.45 7.4V7.25C30.35 7.08333 30.1833 7 29.95 7C29.75 6.96667 29.65 6.85 29.65 6.65L29.75 6.5L29.85 6.05C29.95 5.55 30.3 5.16667 30.9 4.9C31.5 4.6 32.05 4.45 32.55 4.45C32.8167 4.45 33.0333 4.5 33.2 4.6C33.3667 4.7 33.4 4.86666 33.3 5.1L32.45 7.1C32.35 7.2 32.2667 7.33333 32.2 7.5C32.1333 7.63333 32.05 7.76667 31.95 7.9C31.9167 7.96667 31.85 8.01667 31.75 8.05C31.6833 8.05 31.6333 8.08333 31.6 8.15C31.5667 8.25 31.5833 8.3 31.65 8.3C31.7167 8.26667 31.7333 8.3 31.7 8.4C31.6333 8.63333 31.5 8.91667 31.3 9.25C31.1333 9.55 30.9833 9.8 30.85 10C30.8167 10 30.7833 10.0167 30.75 10.05C30.6167 10.05 30.55 9.96667 30.55 9.8C30.55 9.63333 30.5 9.53333 30.4 9.5C30.4 9.53333 30.3833 9.56667 30.35 9.6C30.35 9.63333 30.35 9.68333 30.35 9.75C30.35 9.88333 30.3667 10.0167 30.4 10.15C30.4667 10.2833 30.4833 10.4333 30.45 10.6C30.3833 10.6333 30.35 10.7333 30.35 10.9C30.35 11 30.3 11.0667 30.2 11.1C30.1 11.1 30.0333 11.1667 30 11.3L29.05 12.85L28.85 13.25C28.7833 13.3833 28.7 13.5167 28.6 13.65C28.5 13.7833 28.4 13.9333 28.3 14.1C28.2 14.2667 28.15 14.3667 28.15 14.4C28.15 14.4 28.1 14.4833 28 14.65C27.9667 14.7167 27.9333 14.8167 27.9 14.95C27.8667 15.0833 27.8167 15.2 27.75 15.3C27.75 15.3 27.6833 15.2833 27.55 15.25C27.4167 15.2167 27.35 15.2167 27.35 15.25C27.2833 15.35 27.25 15.4667 27.25 15.6C27.25 15.6667 27.25 15.75 27.25 15.85C27.2833 15.9167 27.3167 16.0333 27.35 16.2C27.35 16.3333 27.3333 16.4167 27.3 16.45C27.2333 16.5833 27.2 16.6833 27.2 16.75C27.2 16.8167 27.1167 16.95 26.95 17.15C26.7833 17.3167 26.7 17.4333 26.7 17.5C26.6 17.8333 26.55 18.0667 26.55 18.2C26.55 18.3 26.4833 18.5167 26.35 18.85L26.1 19.5C26.1 19.5 26.1 19.5667 26.1 19.7C26.1 19.8333 26.0833 19.9 26.05 19.9C25.9833 20 25.9 20.15 25.8 20.35C25.7333 20.5167 25.6667 20.7 25.6 20.9C25.8 20.8333 25.9833 20.7833 26.15 20.75C26.3167 20.6833 26.4333 20.65 26.5 20.65C26.7 20.6167 26.8667 20.6167 27 20.65C27.1667 20.65 27.3167 20.65 27.45 20.65C27.55 20.65 27.6333 20.6167 27.7 20.55C27.8 20.4833 27.8667 20.45 27.9 20.45C28 20.4167 28.0833 20.4333 28.15 20.5C28.2167 20.5333 28.25 20.55 28.25 20.55C28.25 20.55 28.25 20.6 28.25 20.7C28.25 20.7667 28.2167 20.8333 28.15 20.9C28.1167 20.9333 28.05 20.9333 27.95 20.9C27.85 20.8667 27.7667 20.8667 27.7 20.9C27.4667 20.9333 27.1667 20.9833 26.8 21.05C26.4333 21.1167 26.0667 21.1833 25.7 21.25C25.6 21.25 25.5167 21.2667 25.45 21.3C25.35 21.6 25.3 21.8667 25.3 22.1L25.15 22.55C25.1167 22.65 25.0833 22.7667 25.05 22.9C25.0167 23 24.9833 23.0833 24.95 23.15L24.9 23.4L24.85 23.45C24.8167 23.5833 24.8167 23.6833 24.85 23.75C24.8833 23.8167 24.8833 23.9333 24.85 24.1V24.7C25.1167 25.1 25.25 25.4333 25.25 25.7C25.25 25.9667 25.1833 26.2 25.05 26.4C24.9167 26.6 24.8333 26.8667 24.8 27.2C24.7667 27.4333 24.6167 27.6833 24.35 27.95C24.1167 28.2167 23.75 28.35 23.25 28.35ZM23.5 25.45C23.5667 25.45 23.6333 25.3667 23.7 25.2C23.8 25.0333 23.9167 24.7333 24.05 24.3L24.1 23.9C24.1333 23.8333 24.1667 23.7167 24.2 23.55C24.2667 23.35 24.3167 23.2333 24.35 23.2V23.15C24.5167 22.95 24.6167 22.7667 24.65 22.6C24.6833 22.4 24.7 22.1833 24.7 21.95V21.75L24.8 21.4C24.6333 21.4333 24.4 21.5 24.1 21.6C23.8 21.7 23.4667 21.7667 23.1 21.8C22.5 21.8667 21.85 21.9667 21.15 22.1C20.4833 22.2333 19.8833 22.3167 19.35 22.35C19.25 22.35 19.1333 22.3667 19 22.4C18.8667 22.4 18.7667 22.3833 18.7 22.35C18.6 22.2833 18.55 22.2167 18.55 22.15C18.5167 22.0167 18.4333 21.9667 18.3 22C18.2 22.0333 18.15 22.05 18.15 22.05C18.1167 22.05 18.0667 22.0833 18 22.15C17.9667 22.1833 17.9167 22.2 17.85 22.2C17.7167 22.2 17.6 22.2167 17.5 22.25C17.4333 22.2833 17.3333 22.3 17.2 22.3C17.0667 22.2667 16.9333 22.2333 16.8 22.2C16.6667 22.1667 16.55 22.15 16.45 22.15C16.3167 22.1833 16.1667 22.2167 16 22.25C15.8667 22.25 15.7167 22.2667 15.55 22.3C15.5167 22.3 15.4833 22.3 15.45 22.3C15.45 22.2667 15.4333 22.25 15.4 22.25C15.2333 22.25 15.15 22.3333 15.15 22.5C15.15 22.7333 15.3 22.8 15.6 22.7L16.8 22.85H17.15L17.2 22.9C17.2667 22.9333 17.3333 22.9667 17.4 23C17.5 23.0333 17.6 23.0667 17.7 23.1C17.9667 23.2 18.3167 23.2667 18.75 23.3C19.2167 23.3333 19.5667 23.4 19.8 23.5L20.35 23.75C20.4833 23.7833 20.5833 23.8 20.65 23.8C20.7167 23.8 20.8167 23.8167 20.95 23.85L21.2 24.15C21.3333 24.1833 21.4167 24.1833 21.45 24.15C21.4833 24.1167 21.55 24.1333 21.65 24.2L22.15 24.5C22.25 24.6667 22.3833 24.7833 22.55 24.85C22.7167 24.9167 22.8167 24.95 22.85 24.95C23.0167 25.0167 23.1333 25.1167 23.2 25.25C23.3 25.3833 23.4 25.45 23.5 25.45ZM32.1793 28.45C31.446 28.45 30.796 28.25 30.2293 27.85C29.696 27.4167 29.4293 26.6833 29.4293 25.65C29.4293 25.2833 29.496 24.7667 29.6293 24.1C29.7626 23.4333 29.9793 22.7333 30.2793 22C30.446 21.6 30.6293 21.2167 30.8293 20.85C31.0626 20.4833 31.2793 20.1333 31.4793 19.8C31.5126 19.7667 31.6126 19.8 31.7793 19.9C31.9793 20 32.096 20.0333 32.1293 20C32.1626 19.9333 32.1126 19.8667 31.9793 19.8C31.8793 19.7 31.846 19.6333 31.8793 19.6C31.946 19.5333 31.996 19.5 32.0293 19.5C32.096 19.4667 32.146 19.4167 32.1793 19.35C32.2126 19.2833 32.2293 19.2167 32.2293 19.15C32.2293 19.05 32.1793 18.9667 32.0793 18.9C32.0126 18.8333 32.046 18.7333 32.1793 18.6C32.346 18.3667 32.5293 18.15 32.7293 17.95C32.9626 17.7167 33.1626 17.5167 33.3293 17.35C33.396 17.2833 33.4793 17.1833 33.5793 17.05C33.6793 16.8833 33.746 16.7833 33.7793 16.75L33.8793 16.65C33.9126 16.6167 33.946 16.5833 33.9793 16.55C33.9793 16.5167 33.9793 16.5 33.9793 16.5C34.0126 16.5 34.0293 16.4833 34.0293 16.45C34.0293 16.35 33.9293 16.25 33.7293 16.15C33.5293 16.05 33.4293 15.9833 33.4293 15.95C33.4293 15.9167 33.4126 15.8833 33.3793 15.85C33.346 15.8167 33.3126 15.7667 33.2793 15.7C33.3126 15.7 33.346 15.6667 33.3793 15.6C33.446 15.5 33.496 15.45 33.5293 15.45C33.5626 15.45 33.6293 15.4833 33.7293 15.55C33.8293 15.5833 33.896 15.6 33.9293 15.6C33.9626 15.6 33.9793 15.5833 33.9793 15.55C34.0126 15.5167 34.046 15.5 34.0793 15.5C34.146 15.5 34.296 15.55 34.5293 15.65C34.7626 15.7167 34.896 15.75 34.9293 15.75C34.9626 15.75 35.0626 15.6667 35.2293 15.5C35.396 15.3333 35.496 15.2333 35.5293 15.2C35.596 15.1333 35.646 15.0667 35.6793 15C35.7126 14.9 35.796 14.7833 35.9293 14.65H35.9793C36.0126 14.6167 36.0293 14.5833 36.0293 14.55C36.0293 14.5167 36.0293 14.5 36.0293 14.5C36.096 14.4333 36.146 14.3833 36.1793 14.35C36.246 14.2833 36.296 14.2333 36.3293 14.2C36.3626 14.1667 36.3793 14.15 36.3793 14.15C36.4126 14.15 36.4293 14.15 36.4293 14.15C36.4626 14.0833 36.496 14.0333 36.5293 14C36.596 13.9667 36.646 13.9333 36.6793 13.9L36.7793 13.7C36.846 13.6333 37.0793 13.4833 37.4793 13.25C37.8793 13.0167 38.1793 12.9 38.3793 12.9H38.6293C38.6293 12.9 38.6293 12.9167 38.6293 12.95C38.6293 12.95 38.646 12.95 38.6793 12.95C38.7126 12.95 38.746 12.95 38.7793 12.95C38.8126 12.9167 38.846 12.9 38.8793 12.9C38.8793 12.9 38.9293 12.95 39.0293 13.05C39.0626 13.0833 39.096 13.1 39.1293 13.1C39.1626 13.0667 39.196 13.05 39.2293 13.05C39.2626 13.0833 39.2793 13.1167 39.2793 13.15C39.2793 13.1833 39.296 13.2 39.3293 13.2C39.396 13.2 39.4126 13.2 39.3793 13.2C39.3793 13.1667 39.396 13.15 39.4293 13.15C39.4626 13.15 39.4793 13.1833 39.4793 13.25C39.4793 13.3167 39.496 13.3833 39.5293 13.45C39.496 13.55 39.4626 13.6667 39.4293 13.8C39.4293 13.9 39.4126 13.9833 39.3793 14.05C39.0793 14.45 38.846 14.65 38.6793 14.65C38.6793 14.6833 38.6293 14.75 38.5293 14.85C38.4293 14.85 38.3126 14.8833 38.1793 14.95C38.046 15.0167 37.9126 15.0833 37.7793 15.15V15.3C37.7793 15.4333 37.7293 15.5 37.6293 15.5C37.5626 15.4667 37.496 15.5167 37.4293 15.65V15.7C37.496 15.8 37.6126 15.85 37.7793 15.85L38.1293 15.9C38.196 15.9 38.2293 15.8833 38.2293 15.85C38.2626 15.8167 38.296 15.8 38.3293 15.8C38.3626 15.8 38.3793 15.8167 38.3793 15.85C38.3793 15.85 38.396 15.85 38.4293 15.85C38.496 15.85 38.546 15.8333 38.5793 15.8C38.6126 15.7667 38.646 15.75 38.6793 15.75L39.1293 15.8C39.0293 15.6333 38.9793 15.5 38.9793 15.4C38.9793 15.2333 39.1293 15.1333 39.4293 15.1C39.896 15.1 40.296 15.2667 40.6293 15.6C40.696 15.5667 40.7793 15.5667 40.8793 15.6C40.9793 15.6333 41.0793 15.6333 41.1793 15.6L41.4293 15.45L41.4793 15.5C41.6126 15.4333 41.696 15.4 41.7293 15.4C41.796 15.4 41.8126 15.4167 41.7793 15.45C41.7793 15.45 41.796 15.45 41.8293 15.45C41.8293 15.45 41.8626 15.4167 41.9293 15.35C41.9626 15.35 41.996 15.3667 42.0293 15.4C42.096 15.4 42.146 15.3833 42.1793 15.35L42.3293 15.2H42.9293L42.9793 15.15C43.046 15.1167 43.1293 15.0833 43.2293 15.05C43.3626 14.9833 43.4793 14.95 43.5793 14.95C43.5793 14.9167 43.6126 14.9 43.6793 14.9C43.746 14.8667 43.796 14.85 43.8293 14.85H43.9293C44.096 14.85 44.1793 14.9 44.1793 15C44.1793 15.1 44.1293 15.1833 44.0293 15.25C43.996 15.2833 43.946 15.3 43.8793 15.3C43.8126 15.2667 43.746 15.2667 43.6793 15.3C43.546 15.4333 43.446 15.5 43.3793 15.5C43.346 15.5 43.3293 15.5 43.3293 15.5C43.3293 15.4667 43.3126 15.45 43.2793 15.45C43.246 15.45 43.1793 15.5 43.0793 15.6L42.7293 15.65H42.6793C42.6126 15.65 42.5793 15.6833 42.5793 15.75C42.446 15.75 42.3126 15.7667 42.1793 15.8C42.046 15.8 41.9126 15.8167 41.7793 15.85L41.7293 15.9C41.696 15.9 41.6626 15.9167 41.6293 15.95C41.596 15.95 41.546 15.95 41.4793 15.95C41.4126 15.9833 41.2293 16 40.9293 16C41.1293 16.2667 41.2626 16.5167 41.3293 16.75C41.396 16.9167 41.446 17.1833 41.4793 17.55C41.546 17.8833 41.5626 18.1333 41.5293 18.3C41.5293 18.4 41.496 18.4333 41.4293 18.4C41.3626 18.3333 41.3293 18.3333 41.3293 18.4C41.3293 18.5 41.3626 18.5667 41.4293 18.6C41.5293 18.6 41.5793 18.6833 41.5793 18.85C41.5793 18.95 41.5626 19.0833 41.5293 19.25C41.496 19.3833 41.4626 19.5333 41.4293 19.7C41.396 19.9 41.346 20.1167 41.2793 20.35C41.246 20.55 41.1626 20.75 41.0293 20.95L40.8793 21.2V21.5C40.8793 21.7667 40.796 21.95 40.6293 22.05C40.496 22.15 40.396 22.2667 40.3293 22.4C40.2626 22.6 40.2126 22.7333 40.1793 22.8C40.1793 22.8667 40.1126 23 39.9793 23.2C39.546 23.8667 39.0293 24.5 38.4293 25.1C37.8293 25.7 37.246 26.25 36.6793 26.75C36.1793 27.1833 35.496 27.5833 34.6293 27.95C33.796 28.2833 32.9793 28.45 32.1793 28.45ZM32.6793 27.55C32.7793 27.55 32.9793 27.5333 33.2793 27.5C33.5793 27.4333 33.896 27.2833 34.2293 27.05C34.296 27.0167 34.3626 27.0333 34.4293 27.1C34.496 27.1667 34.5626 27.1833 34.6293 27.15C34.796 27.0833 34.8626 27.0333 34.8293 27C34.796 26.9667 34.846 26.9333 34.9793 26.9H35.0293C35.2293 26.9 35.3126 26.8833 35.2793 26.85C35.2793 26.7833 35.296 26.7 35.3293 26.6C35.3293 26.5 35.3793 26.4167 35.4793 26.35C35.5793 26.2833 35.6626 26.2333 35.7293 26.2C36.096 25.9 36.546 25.4 37.0793 24.7C37.6126 23.9667 38.146 23.2333 38.6793 22.5C38.7126 22.4333 38.7626 22.4167 38.8293 22.45C38.896 22.4833 38.946 22.4833 38.9793 22.45C39.0126 22.4167 39.0293 22.3167 39.0293 22.15C39.0293 22.05 39.0793 21.9 39.1793 21.7C39.2793 21.4667 39.3793 21.2833 39.4793 21.15C39.5126 21.05 39.5793 20.8667 39.6793 20.6C39.7793 20.3 39.8626 20.0333 39.9293 19.8C40.0293 19.5333 40.046 19.4 39.9793 19.4C39.9126 19.3667 39.8793 19.3333 39.8793 19.3C39.8793 19.2333 39.9793 19.1667 40.1793 19.1C40.3793 19.0333 40.3626 18.9833 40.1293 18.95C40.0626 18.9167 40.0793 18.85 40.1793 18.75C40.2793 18.65 40.2293 18.5833 40.0293 18.55C39.8626 18.5167 39.796 18.4667 39.8293 18.4C39.896 18.3333 39.946 18.2833 39.9793 18.25C40.0793 18.15 40.1293 18.05 40.1293 17.95C40.1293 17.65 40.046 17.35 39.8793 17.05C39.746 16.75 39.596 16.4833 39.4293 16.25C39.2293 16.3833 39.1293 16.45 39.1293 16.45C39.096 16.45 39.0793 16.45 39.0793 16.45C39.0793 16.4167 39.046 16.4 38.9793 16.4C38.946 16.4 38.9293 16.4 38.9293 16.4C38.9293 16.3667 38.9126 16.35 38.8793 16.35C38.846 16.35 38.8126 16.3667 38.7793 16.4C38.746 16.4333 38.7293 16.45 38.7293 16.45C38.696 16.4833 38.6293 16.5 38.5293 16.5C38.4626 16.5 38.4126 16.5 38.3793 16.5C38.346 16.5 38.3126 16.4833 38.2793 16.45C38.2793 16.4167 38.2626 16.4 38.2293 16.4C38.196 16.4 38.146 16.4333 38.0793 16.5C38.046 16.5667 37.996 16.6 37.9293 16.6C37.896 16.6 37.8793 16.5833 37.8793 16.55C37.8793 16.5167 37.846 16.5 37.7793 16.5C37.746 16.5 37.7126 16.5167 37.6793 16.55C37.6793 16.5833 37.6626 16.6 37.6293 16.6C37.596 16.6 37.5293 16.55 37.4293 16.45H37.3793C37.3793 16.65 37.3293 16.75 37.2293 16.75C37.196 16.75 37.146 16.7167 37.0793 16.65C36.7126 16.8833 36.096 17.4333 35.2293 18.3C34.3626 19.1333 33.596 20.1 32.9293 21.2C32.796 21.4667 32.6293 21.7833 32.4293 22.15C32.2626 22.5167 32.1126 22.9333 31.9793 23.4C31.946 23.6 31.846 23.75 31.6793 23.85C31.546 23.95 31.446 24.0667 31.3793 24.2C31.346 24.3333 31.3626 24.4167 31.4293 24.45C31.496 24.4833 31.546 24.5333 31.5793 24.6C31.5793 24.7333 31.546 24.9167 31.4793 25.15C31.446 25.3833 31.4293 25.6 31.4293 25.8C31.4293 26.4333 31.546 26.8833 31.7793 27.15C32.046 27.4167 32.346 27.55 32.6793 27.55ZM43.1965 28.15C42.9965 28.15 42.8965 28.0333 42.8965 27.8C42.8965 27.6333 42.9465 27.4333 43.0465 27.2C43.3132 26.6333 43.6298 25.8333 43.9965 24.8C44.3632 23.7667 44.8132 22.8833 45.3465 22.15L47.2965 17.8C47.2965 17.8 47.2632 17.7833 47.1965 17.75C47.1298 17.6833 47.0965 17.6167 47.0965 17.55C46.8965 17.4167 46.6798 17.2333 46.4465 17C46.2465 16.7333 46.2298 16.4667 46.3965 16.2C46.4632 16.1333 46.5132 16.1 46.5465 16.1C46.5798 16.1 46.5965 16.1 46.5965 16.1V16C46.5965 15.8667 46.6465 15.7833 46.7465 15.75C46.8798 15.7167 46.9632 15.6667 46.9965 15.6C47.0632 15.1333 47.4465 14.7833 48.1465 14.55C48.8798 14.3167 49.5298 14.2 50.0965 14.2C50.6632 14.2 50.9465 14.2833 50.9465 14.45C50.9465 14.55 50.8465 14.6667 50.6465 14.8C50.5798 14.8667 50.4132 15.0167 50.1465 15.25C49.9132 15.4833 49.6965 15.7667 49.4965 16.1L49.1465 16.7L48.7965 17.15C48.2632 18.1167 47.8298 18.9333 47.4965 19.6C47.1632 20.2667 46.7632 21.1167 46.2965 22.15C46.1965 22.35 46.1465 22.5167 46.1465 22.65C46.1465 22.8167 46.2132 22.9 46.3465 22.9C46.4132 22.9 46.4798 22.8833 46.5465 22.85C46.6465 22.7833 46.7465 22.7333 46.8465 22.7C47.1132 22.5333 47.3298 22.3833 47.4965 22.25C47.6965 22.0833 47.9132 21.9167 48.1465 21.75C48.2465 21.65 48.3298 21.65 48.3965 21.75C48.4632 21.8167 48.4632 21.9167 48.3965 22.05C48.2632 22.3167 48.1632 22.4833 48.0965 22.55C48.0632 22.5833 48.0132 22.6167 47.9465 22.65C47.8798 22.6833 47.7298 22.8333 47.4965 23.1L47.2965 23.5C47.2298 23.5667 47.1465 23.7 47.0465 23.9C46.9798 24.0667 46.9465 24.1667 46.9465 24.2C46.9465 24.2667 46.9132 24.3 46.8465 24.3C46.7798 24.2667 46.6798 24.3167 46.5465 24.45C46.5132 24.4833 46.4965 24.55 46.4965 24.65C46.5298 24.75 46.5132 24.8333 46.4465 24.9C46.4132 25 46.3632 25.0833 46.2965 25.15C46.2298 25.1833 46.1965 25.2167 46.1965 25.25C46.1632 25.3833 46.0965 25.4667 45.9965 25.5C45.9298 25.5 45.8632 25.5333 45.7965 25.6C45.7632 25.6 45.7465 25.6333 45.7465 25.7C45.7465 25.9667 45.7132 26.0833 45.6465 26.05C45.5798 26.0167 45.5132 26.05 45.4465 26.15C45.3798 26.2833 45.2965 26.35 45.1965 26.35C44.9965 26.4167 44.9132 26.4667 44.9465 26.5C44.9798 26.5333 45.0298 26.5667 45.0965 26.6C45.1632 26.6 45.1132 26.65 44.9465 26.75C44.8465 26.7833 44.7632 26.8833 44.6965 27.05C44.6298 27.1833 44.5632 27.2833 44.4965 27.35C44.4298 27.4167 44.3465 27.4667 44.2465 27.5C44.1465 27.5333 44.0632 27.6 43.9965 27.7C43.6965 28 43.4298 28.15 43.1965 28.15ZM52.0965 27.05C51.8965 27.05 51.7298 26.9833 51.5965 26.85H51.5465C51.2465 26.85 51.1965 26.7167 51.3965 26.45C51.4298 26.25 51.4965 26.1 51.5965 26C51.6965 25.8667 51.8132 25.7333 51.9465 25.6C51.9798 25.6 51.9965 25.6 51.9965 25.6C51.9965 25.5667 51.9965 25.55 51.9965 25.55C52.0965 25.3167 52.2298 25.1333 52.3965 25L52.5965 24.7C52.7298 24.5667 52.8632 24.3667 52.9965 24.1C53.1298 23.9333 53.2132 23.8167 53.2465 23.75C53.2798 23.65 53.3465 23.4833 53.4465 23.25C53.4465 23.1833 53.4965 23.0833 53.5965 22.95C53.6965 22.8167 53.7632 22.7333 53.7965 22.7L54.0965 21.95C54.1298 21.7833 54.1798 21.65 54.2465 21.55C54.3132 21.45 54.3632 21.3167 54.3965 21.15L54.6965 20.4C54.7632 20.1667 54.8465 20 54.9465 19.9H54.9965C54.9632 19.8 54.9965 19.6667 55.0965 19.5C55.1632 19.2667 55.2132 19.0667 55.2465 18.9C55.3132 18.7 55.3465 18.6 55.3465 18.6L55.4965 17.7C55.4632 17.1 55.2132 16.8 54.7465 16.8C54.5798 16.8 54.3632 16.85 54.0965 16.95C53.5298 17.1167 52.9298 17.4667 52.2965 18C52.2632 18.0333 52.2132 18.0833 52.1465 18.15C52.1132 18.2167 52.0632 18.2833 51.9965 18.35C51.9632 18.3833 51.9298 18.4 51.8965 18.4C51.8965 18.3667 51.8632 18.3833 51.7965 18.45C51.7632 18.4833 51.7465 18.5333 51.7465 18.6C51.7465 18.6333 51.7298 18.6667 51.6965 18.7C51.6632 18.7333 51.6132 18.7667 51.5465 18.8C51.5132 18.8 51.4632 18.8333 51.3965 18.9C51.3632 18.9 51.3298 18.9333 51.2965 19C51.2965 19.0333 51.2798 19.0667 51.2465 19.1C51.1132 19.2333 50.9465 19.4 50.7465 19.6C50.5465 19.7667 50.3298 19.9333 50.0965 20.1L49.8965 20.25C49.8632 20.2833 49.8132 20.35 49.7465 20.45C49.7132 20.5167 49.6632 20.5833 49.5965 20.65C49.4632 20.7833 49.3465 20.9333 49.2465 21.1C49.1465 21.2667 49.0132 21.3667 48.8465 21.4H48.7465C48.5798 21.4 48.5798 21.25 48.7465 20.95C48.7798 20.8833 48.8632 20.7667 48.9965 20.6C49.1632 20.4333 49.2632 20.3333 49.2965 20.3L49.4965 20.1C49.5632 20.0333 49.5965 19.9833 49.5965 19.95C49.5965 19.9167 49.6132 19.8833 49.6465 19.85L50.1465 19.4L50.3465 19.15L50.6965 18.9L51.6965 17.95C51.7632 17.8833 51.8632 17.7667 51.9965 17.6C52.1632 17.4333 52.2798 17.3333 52.3465 17.3C52.5132 17.1333 52.6965 17 52.8965 16.9C53.0965 16.7667 53.2965 16.6167 53.4965 16.45C53.6632 16.3167 53.8465 16.2 54.0465 16.1C54.1798 15.9667 54.2798 15.8833 54.3465 15.85C54.6465 15.6833 54.8132 15.5833 54.8465 15.55C54.8798 15.5167 54.9965 15.4667 55.1965 15.4C55.4965 15.3 55.8465 15.25 56.2465 15.25C56.5132 15.25 56.6798 15.2667 56.7465 15.3C56.9132 15.3667 57.0798 15.4333 57.2465 15.5C57.4132 15.5667 57.4965 15.7333 57.4965 16C57.4965 16.1667 57.5132 16.2667 57.5465 16.3C57.5798 16.3 57.5798 16.4 57.5465 16.6C57.5465 16.7333 57.5298 16.95 57.4965 17.25C57.4965 17.55 57.4632 17.7833 57.3965 17.95C57.3632 18.1167 57.2798 18.35 57.1465 18.65C57.0465 18.9167 56.9632 19.15 56.8965 19.35L56.7465 19.75L56.2965 20.55C56.2632 20.5833 56.1465 20.6667 55.9465 20.8C55.7465 20.9 55.6132 20.9833 55.5465 21.05C55.5132 21.0833 55.5632 21.15 55.6965 21.25C55.8298 21.35 55.8132 21.5167 55.6465 21.75C55.5798 21.8833 55.4965 21.9667 55.3965 22C55.2965 22 55.1965 22.0833 55.0965 22.25C54.6965 22.8167 54.3798 23.2167 54.1465 23.45L53.5965 24.2L53.4465 24.35C53.5798 24.35 53.6965 24.4333 53.7965 24.6C53.8298 24.7 53.8965 24.7833 53.9965 24.85C54.0965 24.9167 54.1465 25.05 54.1465 25.25C54.1465 25.4833 54.0132 25.8167 53.7465 26.25C53.4798 26.6833 53.1632 26.9 52.7965 26.9C52.6632 26.9 52.5465 26.9333 52.4465 27C52.3465 27.0333 52.2298 27.05 52.0965 27.05ZM65.5465 28.25C65.2798 28.25 65.0965 28.2333 64.9965 28.2C64.6632 28.1333 64.3632 28.0333 64.0965 27.9C63.8632 27.7667 63.6632 27.5167 63.4965 27.15C63.4298 26.9833 63.3465 26.7667 63.2465 26.5C63.1465 26.2333 63.0632 25.9833 62.9965 25.75C62.9632 25.5833 62.9465 25.3833 62.9465 25.15C62.9465 25.0167 62.9298 24.9167 62.8965 24.85C62.8965 24.75 62.8965 24.6333 62.8965 24.5C62.8965 24.3667 62.8798 24.2167 62.8465 24.05C62.8132 23.8833 62.8132 23.7333 62.8465 23.6V22.65C62.8465 22.4833 62.8465 22.3333 62.8465 22.2C62.8465 22.0333 62.8632 21.9167 62.8965 21.85C62.9632 21.55 62.9965 21.4 62.9965 21.4C62.9965 21.3667 63.0132 21.2 63.0465 20.9C63.0798 20.5 63.0798 20.0833 63.0465 19.65C63.0465 19.2167 63.0632 18.8667 63.0965 18.6C63.1965 17.6 63.0132 17.1 62.5465 17.1C62.3465 17.1 62.0798 17.1833 61.7465 17.35C61.7132 17.4167 61.6465 17.4667 61.5465 17.5C61.4465 17.5 61.3298 17.55 61.1965 17.65L60.9965 17.8C60.9965 17.8333 60.9465 17.85 60.8465 17.85C60.7798 17.8167 60.7632 17.8333 60.7965 17.9C60.7965 18.1667 60.7132 18.2333 60.5465 18.1L60.0465 18.5L59.8965 18.7L59.8465 18.75C59.7132 18.8833 59.5965 18.95 59.4965 18.95L59.2965 19.1C59.2965 19.1333 59.2632 19.2 59.1965 19.3C59.1632 19.3667 59.0965 19.3833 58.9965 19.35L58.7465 19.6C58.6132 19.8 58.4965 19.9167 58.3965 19.95C58.3298 19.9833 58.2465 20.0167 58.1465 20.05L57.6965 20.55L57.4965 20.6C57.4965 20.7333 57.3465 20.9333 57.0465 21.2C56.7798 21.4667 56.6132 21.65 56.5465 21.75C56.4465 21.85 56.3465 21.9 56.2465 21.9C56.1798 21.9 56.1465 21.8667 56.1465 21.8C56.1465 21.6667 56.2132 21.5333 56.3465 21.4C56.4798 21.2667 56.6798 21.0167 56.9465 20.65C57.2465 20.2833 57.4132 20.1 57.4465 20.1C57.6132 19.9333 57.7298 19.7667 57.7965 19.6C57.8632 19.4333 57.9798 19.2833 58.1465 19.15C58.1465 19.2167 58.1798 19.25 58.2465 19.25C58.3132 19.25 58.3798 19.1667 58.4465 19C58.5465 18.8 58.6132 18.7167 58.6465 18.75L59.5465 18C59.5132 17.9667 59.5965 17.9 59.7965 17.8C59.9298 17.7333 60.0132 17.7 60.0465 17.7C60.0798 17.7 60.1632 17.6 60.2965 17.4L60.6465 17.15C60.6798 17.0833 60.7132 17.0833 60.7465 17.15C60.7798 17.2167 60.8298 17.25 60.8965 17.25L60.9965 16.9C61.0632 16.7667 61.1798 16.6667 61.3465 16.6C61.5132 16.5333 61.6798 16.45 61.8465 16.35C62.0132 16.1833 62.1798 16.0333 62.3465 15.9C62.5132 15.7667 62.6465 15.7167 62.7465 15.75H62.9465C63.3798 15.5833 63.7632 15.5 64.0965 15.5C64.6298 15.5 65.0465 15.7 65.3465 16.1C65.4798 16.2667 65.5632 16.45 65.5965 16.65C65.6298 16.6833 65.6298 16.7333 65.5965 16.8C65.5965 16.8333 65.6132 16.8833 65.6465 16.95C65.6798 17.0167 65.7465 17.1 65.8465 17.2C65.9465 17.2667 65.9965 17.35 65.9965 17.45V17.55C65.9965 17.65 65.9298 17.7667 65.7965 17.9C65.9632 18.0333 66.0298 18.1167 65.9965 18.15C65.9632 18.15 65.9298 18.2 65.8965 18.3L65.8465 19C65.8132 19.2333 65.7465 19.4167 65.6465 19.55C65.5798 19.65 65.5132 19.8333 65.4465 20.1C65.5798 20.3 65.5798 20.4167 65.4465 20.45C65.4465 20.4833 65.4132 20.5 65.3465 20.5L65.2965 20.7C65.3632 20.8333 65.3965 20.9 65.3965 20.9L65.2465 21.2C65.2465 21.2 65.2965 21.2 65.3965 21.2C65.3298 21.2667 65.2632 21.4 65.1965 21.6C65.1632 21.7667 65.1298 21.9 65.0965 22C65.0632 22.1667 64.9965 22.25 64.8965 22.25C64.7965 22.25 64.7632 22.3333 64.7965 22.5C64.8298 22.5333 64.8465 22.65 64.8465 22.85C64.8465 23.0167 64.8132 23.1 64.7465 23.1L64.6465 23.7C64.6465 23.7333 64.6465 23.7667 64.6465 23.8C64.6798 23.8333 64.6965 23.8667 64.6965 23.9C64.6965 24.0667 64.6632 24.2333 64.5965 24.4C64.5632 24.5333 64.5132 24.6833 64.4465 24.85C64.4132 25.0167 64.3798 25.2 64.3465 25.4C64.3465 25.5667 64.3465 25.7333 64.3465 25.9C64.3465 26.0333 64.3465 26.1833 64.3465 26.35C64.3798 26.4833 64.4132 26.6167 64.4465 26.75C64.4798 26.7833 64.5298 26.8833 64.5965 27.05C64.6965 27.2167 64.7465 27.3167 64.7465 27.35C64.8132 27.4167 64.8632 27.45 64.8965 27.45C64.9632 27.4833 65.0632 27.5 65.1965 27.5C65.3632 27.4667 65.4798 27.4833 65.5465 27.55C65.8465 27.5833 66.2298 27.4333 66.6965 27.1C67.1965 26.7333 67.6465 26.3333 68.0465 25.9C68.1465 25.8 68.2465 25.75 68.3465 25.75C68.4465 25.75 68.5132 25.8 68.5465 25.9C68.5798 26 68.5465 26.1333 68.4465 26.3C67.8798 27.0667 67.3465 27.5833 66.8465 27.85C66.3798 28.1167 65.9465 28.25 65.5465 28.25ZM73.682 28.1C72.8487 28.1 72.1154 27.8667 71.482 27.4C70.8487 26.9333 70.532 26.1333 70.532 25C70.532 24.5667 70.582 24.1333 70.682 23.7C70.782 23.2333 70.8987 22.7833 71.032 22.35C71.0987 21.9167 71.1987 21.5333 71.332 21.2C71.3654 21.0667 71.382 21 71.382 21C71.4154 20.9667 71.4987 20.9167 71.632 20.85L72.032 20.25V20.05C71.9987 20.05 71.982 20.05 71.982 20.05C71.982 20.0167 71.982 20 71.982 20C71.982 19.9 72.0654 19.7833 72.232 19.65C72.3987 19.5167 72.482 19.45 72.482 19.45C72.5154 19.2833 72.5654 19.2 72.632 19.2C72.6987 19.2 72.782 19.15 72.882 19.05H73.432V18.95C73.432 18.7833 73.3487 18.7167 73.182 18.75C73.0487 18.75 72.982 18.7333 72.982 18.7C72.982 18.6667 73.032 18.6 73.132 18.5C73.2654 18.3667 73.3487 18.2833 73.382 18.25C73.482 18.1167 73.5654 18 73.632 17.9C73.6987 17.7667 73.7987 17.6667 73.932 17.6C74.532 16.8667 74.8987 16.4 75.032 16.2C75.1987 16 75.3654 15.85 75.532 15.75C75.5987 15.75 75.6487 15.7833 75.682 15.85C75.7487 15.8833 75.7487 15.9333 75.682 16C75.7487 16.1 75.7987 16.1167 75.832 16.05C75.8987 15.9833 75.932 15.95 75.932 15.95L76.132 15.85C76.0654 15.7833 76.032 15.7 76.032 15.6C76.032 15.4333 76.0654 15.3 76.132 15.2C76.1987 15.0667 76.3154 14.9333 76.482 14.8C76.682 14.6667 76.782 14.5833 76.782 14.55C76.982 14.4833 77.132 14.4167 77.232 14.35C77.3654 14.2833 77.4987 14.25 77.632 14.25C77.8654 14.25 78.0987 14.3333 78.332 14.5C78.9654 14.8333 79.4987 15.1667 79.932 15.5C80.3654 15.8333 80.582 16.3 80.582 16.9C80.582 17.5333 80.3154 18.0833 79.782 18.55C79.282 18.9833 78.6654 19.35 77.932 19.65C77.1987 19.95 76.4654 20.2 75.732 20.4C75.032 20.5667 74.482 20.7 74.082 20.8C73.8487 20.8333 73.732 20.9333 73.732 21.1C73.7654 21.2333 73.7487 21.3833 73.682 21.55L73.332 22.1L73.032 22.8L72.782 23.25C72.5487 23.45 72.4654 23.6 72.532 23.7C72.5987 23.8 72.7154 23.7833 72.882 23.65C72.9154 23.6833 72.932 23.7333 72.932 23.8C72.932 23.9333 72.8987 24.1 72.832 24.3C72.7654 24.4667 72.7154 24.6 72.682 24.7C72.6487 24.8333 72.6487 24.9 72.682 24.9C72.7487 24.8667 72.782 24.9333 72.782 25.1L72.832 25.8C73.032 26.4333 73.482 26.8 74.182 26.9C74.2487 26.9 74.3154 26.9167 74.382 26.95C74.482 26.95 74.5654 26.95 74.632 26.95C75.232 26.95 75.5487 26.9 75.582 26.8C75.6487 26.7 75.732 26.6333 75.832 26.6C76.132 26.5333 76.382 26.4667 76.582 26.4C76.8154 26.3333 77.0487 26.2333 77.282 26.1C77.682 25.9333 78.0654 25.7167 78.432 25.45C78.7987 25.1833 79.182 24.9167 79.582 24.65L80.082 24.3C80.1154 24.2333 80.1154 24.1833 80.082 24.15C80.0487 24.1167 80.0487 24.0833 80.082 24.05C80.1487 24.0167 80.1987 24.0167 80.232 24.05C80.2987 24.05 80.3487 24.0333 80.382 24C80.4487 23.9667 80.5154 23.9167 80.582 23.85C80.6487 23.75 80.7154 23.6667 80.782 23.6C80.8487 23.5333 80.882 23.4667 80.882 23.4C80.9154 23.3333 80.9654 23.2667 81.032 23.2C81.2987 22.9333 81.5654 22.65 81.832 22.35C82.132 22.05 82.382 21.7833 82.582 21.55C82.8154 21.2167 82.9987 21.05 83.132 21.05C83.1987 21.05 83.232 21.0833 83.232 21.15C83.232 21.3167 83.1154 21.5667 82.882 21.9C82.3154 22.7333 81.6654 23.55 80.932 24.35C80.1987 25.1167 79.3987 25.8167 78.532 26.45C77.8987 26.8833 77.1487 27.2667 76.282 27.6C75.4154 27.9333 74.5487 28.1 73.682 28.1ZM74.432 20.05C74.932 20.0167 75.582 19.8833 76.382 19.65C77.182 19.3833 77.8487 19.0333 78.382 18.6C78.9487 18.1333 79.232 17.6167 79.232 17.05C79.232 16.5167 78.9487 16 78.382 15.5C77.9154 15.8333 77.3987 16.3167 76.832 16.95C76.2987 17.55 75.8154 18.15 75.382 18.75C74.9487 19.3167 74.632 19.75 74.432 20.05ZM89.666 12.4C89.566 12.4 89.466 12.3667 89.366 12.3C89.2993 12.2333 89.1993 12.15 89.066 12.05C88.9993 12.0167 88.916 11.9833 88.816 11.95C88.7493 11.8833 88.716 11.7833 88.716 11.65C88.6827 11.6167 88.616 11.6 88.516 11.6C88.3493 11.6 88.266 11.4833 88.266 11.25C88.266 10.9833 88.3993 10.8 88.666 10.7L88.916 10.5V10.55L89.116 10.3H89.216C89.416 10.3 89.5493 10.2 89.616 10C89.716 9.8 89.916 9.66667 90.216 9.6C90.416 9.53333 90.5827 9.55 90.716 9.65C90.8493 9.75 91.016 9.8 91.216 9.8C91.416 9.8 91.6327 9.73333 91.866 9.6L92.616 9.45C92.716 9.45 92.766 9.48333 92.766 9.55C92.766 9.61667 92.666 9.7 92.466 9.8C92.2993 9.9 92.1827 9.98333 92.116 10.05L92.066 10.1L92.016 10.2L91.816 10.45C91.616 10.6833 91.3827 10.9667 91.116 11.3C90.8827 11.6 90.6327 11.85 90.366 12.05C90.066 12.2833 89.8327 12.4 89.666 12.4ZM82.066 28.15C81.866 28.15 81.766 28.0333 81.766 27.8C81.766 27.6333 81.816 27.4333 81.916 27.2C82.1827 26.6333 82.4827 25.8333 82.816 24.8C83.1827 23.7667 83.6327 22.8833 84.166 22.15C84.5327 21.4167 84.866 20.7 85.166 20C85.4993 19.2667 85.816 18.5333 86.116 17.8C86.116 17.8 86.0827 17.7833 86.016 17.75C85.9827 17.6833 85.966 17.6167 85.966 17.55C85.766 17.4167 85.5493 17.2333 85.316 17C85.116 16.7333 85.0993 16.4667 85.266 16.2C85.3327 16.1333 85.3827 16.1 85.416 16.1C85.4493 16.1 85.466 16.1 85.466 16.1C85.466 16.0667 85.4493 16.05 85.416 16.05C85.416 16.0167 85.416 16 85.416 16C85.416 15.8667 85.4827 15.7833 85.616 15.75C85.7493 15.7167 85.816 15.6667 85.816 15.6C85.8827 15.1333 86.2827 14.7833 87.016 14.55C87.7493 14.3167 88.3993 14.2 88.966 14.2C89.5327 14.2 89.816 14.2833 89.816 14.45C89.816 14.5167 89.716 14.6333 89.516 14.8C89.416 14.8667 89.2493 15.0167 89.016 15.25C88.7827 15.4833 88.566 15.7667 88.366 16.1L87.966 16.7C87.9327 16.7667 87.8827 16.85 87.816 16.95C87.7827 17.0167 87.7327 17.0833 87.666 17.15C87.1327 18.1167 86.6993 18.9333 86.366 19.6C86.0327 20.2667 85.6327 21.1167 85.166 22.15C85.0993 22.35 85.066 22.4833 85.066 22.55C85.066 22.7833 85.1993 22.9 85.466 22.9C85.666 22.9 85.866 22.85 86.066 22.75L86.566 22.55C87.366 21.8167 88.1993 21.2 89.066 20.7C89.0993 20.7 89.116 20.7 89.116 20.7C89.1493 20.6667 89.1827 20.65 89.216 20.65C89.316 20.65 89.3827 20.7167 89.416 20.85C89.4493 20.95 89.416 21.0333 89.316 21.1C88.3493 21.6333 87.4493 22.3167 86.616 23.15C86.5827 23.2167 86.5493 23.2833 86.516 23.35C86.4827 23.4167 86.4327 23.4833 86.366 23.55C86.2993 23.6167 86.1993 23.7333 86.066 23.9C85.966 24.0667 85.916 24.1667 85.916 24.2C85.8827 24.3 85.8327 24.3333 85.766 24.3C85.7327 24.2667 85.6327 24.3167 85.466 24.45C85.4327 24.4833 85.3993 24.55 85.366 24.65C85.366 24.75 85.3493 24.8333 85.316 24.9C85.2827 25 85.216 25.0833 85.116 25.15C85.0493 25.1833 85.016 25.2167 85.016 25.25C84.9827 25.3833 84.916 25.4667 84.816 25.5C84.7493 25.5 84.6827 25.5333 84.616 25.6C84.5827 25.6333 84.5827 25.6833 84.616 25.75C84.6493 25.8167 84.6327 25.8833 84.566 25.95C84.5327 26.05 84.4993 26.1 84.466 26.1C84.4327 26.0667 84.3827 26.0833 84.316 26.15C84.1827 26.2833 84.0827 26.35 84.016 26.35C83.816 26.4167 83.7327 26.4667 83.766 26.5C83.8327 26.5333 83.8827 26.5667 83.916 26.6C83.9827 26.6 83.9327 26.65 83.766 26.75C83.6993 26.7833 83.6327 26.8833 83.566 27.05C83.4993 27.1833 83.4327 27.2833 83.366 27.35C83.266 27.4167 83.166 27.4667 83.066 27.5C82.9993 27.5333 82.916 27.6 82.816 27.7C82.516 28 82.266 28.15 82.066 28.15ZM89.4156 31.1C89.349 30.9 89.3156 30.7167 89.3156 30.55C89.3156 30.45 89.349 30.2667 89.4156 30C89.449 29.9 89.549 29.6167 89.7156 29.15C89.849 28.7167 89.9823 28.2667 90.1156 27.8C90.2823 27.3333 90.399 27.0667 90.4656 27C90.499 27 90.6156 26.75 90.8156 26.25C91.049 25.7167 91.299 25.1667 91.5656 24.6C91.8323 24 92.0323 23.6167 92.1656 23.45C92.3323 23.1167 92.5823 22.6667 92.9156 22.1C93.249 21.5333 93.5823 20.8833 93.9156 20.15V19.95C93.9156 19.7167 93.9656 19.5 94.0656 19.3C94.1656 19.0333 94.2823 18.8667 94.4156 18.8C94.549 18.7 94.6656 18.5 94.7656 18.2C94.8323 18.0333 94.8823 17.85 94.9156 17.65C94.9823 17.4167 95.049 17.2167 95.1156 17.05C94.749 17.1833 94.5656 17.3 94.5656 17.4C94.5656 17.5333 94.3823 17.6667 94.0156 17.8C93.649 17.9333 93.4323 18.0167 93.3656 18.05L91.6156 18.6C91.5156 18.6333 91.4156 18.5667 91.3156 18.4C91.249 18.2 91.2156 17.9833 91.2156 17.75C91.2156 17.4167 91.2823 17.15 91.4156 16.95C91.4156 16.9167 91.449 16.9 91.5156 16.9L92.5656 16.6C92.799 16.5333 93.099 16.4833 93.4656 16.45C93.8323 16.3833 94.149 16.2833 94.4156 16.15L95.8656 15.95V15.7C95.8656 15.5 95.9323 15.3167 96.0656 15.15C96.2323 14.95 96.3823 14.7333 96.5156 14.5C96.5823 14.3667 96.6823 14.3 96.8156 14.3H96.9656C97.0323 14.3 97.0656 14.2167 97.0656 14.05C97.0656 13.9833 97.0656 13.9167 97.0656 13.85C97.0656 13.75 97.049 13.6333 97.0156 13.5C97.0156 13.2333 97.1323 13.0833 97.3656 13.05H97.5156C97.6156 12.6167 97.699 12.3 97.7656 12.1C97.8656 11.9 97.9823 11.7333 98.1156 11.6L98.5156 11.2C98.949 10.7667 99.249 10.3167 99.4156 9.85C99.4823 9.71667 99.5656 9.6 99.6656 9.5C99.799 9.4 99.9156 9.28333 100.016 9.15C100.082 9.08333 100.099 8.98333 100.066 8.85C100.066 8.71667 100.082 8.61667 100.116 8.55C100.382 8.15 100.699 7.75 101.066 7.35C101.432 6.91667 101.782 6.53333 102.116 6.2C102.216 6.03333 102.332 5.86667 102.466 5.7C102.599 5.53333 102.732 5.36667 102.866 5.2C103.066 4.96667 103.282 4.8 103.516 4.7C103.749 4.6 103.982 4.45 104.216 4.25C104.282 4.18333 104.316 4.08333 104.316 3.95C104.316 3.78333 104.349 3.66667 104.416 3.6C105.182 2.96667 105.999 2.41667 106.866 1.95C107.732 1.45 108.566 1.05 109.366 0.749999C110.166 0.449999 110.816 0.299999 111.316 0.299999C111.582 0.299999 111.832 0.316665 112.066 0.349998C112.299 0.383331 112.549 0.433332 112.816 0.499999H112.916C113.082 0.499999 113.232 0.533332 113.366 0.599998C113.532 0.666666 113.682 0.733333 113.816 0.799999C113.982 0.799999 114.166 0.833331 114.366 0.899997C114.532 0.966665 114.616 1.06667 114.616 1.2C114.649 1.33333 114.632 1.43333 114.566 1.5C114.532 1.53333 114.466 1.53333 114.366 1.5C114.299 1.46667 114.232 1.45 114.166 1.45C114.099 1.45 114.032 1.41667 113.966 1.35C113.899 1.28333 113.832 1.23333 113.766 1.2C113.666 1.2 113.549 1.21667 113.416 1.25C113.282 1.28333 113.149 1.3 113.016 1.3C112.649 1.3 112.416 1.26667 112.316 1.2C112.249 1.1 112.066 1.08333 111.766 1.15C111.699 1.15 111.582 1.16667 111.416 1.2C111.249 1.23333 111.132 1.25 111.066 1.25C109.866 1.55 108.816 2.05 107.916 2.75C107.049 3.41667 106.266 4.16667 105.566 5C104.866 5.83333 104.199 6.63333 103.566 7.4C103.432 7.7 103.282 7.98333 103.116 8.25C102.982 8.48333 102.832 8.68333 102.666 8.85C102.632 8.88333 102.599 8.86667 102.566 8.8C102.566 8.73333 102.532 8.73333 102.466 8.8C102.399 8.9 102.332 9.06667 102.266 9.3C102.199 9.5 102.132 9.66667 102.066 9.8C102.032 9.83333 101.982 9.81667 101.916 9.75C101.882 9.68333 101.832 9.68333 101.766 9.75C101.732 9.78333 101.699 9.91667 101.666 10.15C101.632 10.35 101.582 10.4833 101.516 10.55C101.082 11.0833 100.632 11.6 100.166 12.1C99.699 12.6 99.2323 13.1833 98.7656 13.85L97.6156 15.6C97.749 15.6 97.8656 15.6 97.9656 15.6C98.099 15.6 98.2156 15.5833 98.3156 15.55C98.4156 15.5167 98.449 15.5333 98.4156 15.6C98.4156 15.6333 98.4656 15.6333 98.5656 15.6C98.7323 15.6 98.849 15.5833 98.9156 15.55C98.9823 15.4833 99.099 15.4333 99.2656 15.4C99.5323 15.3667 99.8323 15.35 100.166 15.35C100.532 15.3167 100.816 15.3 101.016 15.3C101.149 15.3 101.316 15.3 101.516 15.3C101.716 15.3 101.866 15.3167 101.966 15.35C102.032 15.35 102.049 15.3833 102.016 15.45C102.016 15.4833 102.032 15.5 102.066 15.5C102.132 15.5 102.182 15.4833 102.216 15.45C102.282 15.4167 102.349 15.4 102.416 15.4C102.449 15.3667 102.499 15.3667 102.566 15.4C102.632 15.4 102.682 15.4 102.716 15.4L103.266 15.55C103.432 15.5833 103.532 15.6833 103.566 15.85C103.599 16.0167 103.549 16.1 103.416 16.1C103.316 16.1 103.232 16.0833 103.166 16.05C103.099 16.0167 103.032 16 102.966 16H101.716C101.482 16 101.266 16 101.066 16C100.866 16 100.666 16.0167 100.466 16.05C100.399 16.0833 100.366 16.05 100.366 15.95C100.399 15.85 100.382 15.8 100.316 15.8C100.282 15.8 100.232 15.85 100.166 15.95C100.099 16.0167 100.049 16.05 100.016 16.05L99.7656 16.2C99.299 16.3 98.799 16.4167 98.2656 16.55C97.7656 16.65 97.2656 16.7833 96.7656 16.95L94.0156 21.5C93.7823 21.9 93.599 22.2667 93.4656 22.6C93.3656 22.9 93.249 23.1833 93.1156 23.45C93.049 23.55 93.0156 23.6833 93.0156 23.85C93.0156 24.1167 93.1656 24.25 93.4656 24.25C93.5656 24.25 93.749 24.1833 94.0156 24.05C94.149 23.9833 94.2656 23.9333 94.3656 23.9C94.499 23.8667 94.6323 23.8167 94.7656 23.75C94.799 23.75 94.999 23.6333 95.3656 23.4C95.7323 23.1667 96.1156 22.8833 96.5156 22.55L96.9156 22.2L97.5156 21.75C97.6156 21.65 97.699 21.6 97.7656 21.6C97.899 21.6 97.999 21.6667 98.0656 21.8C98.1323 21.9333 98.1156 22.0667 98.0156 22.2C97.949 22.3 97.8323 22.3833 97.6656 22.45C97.499 22.5167 97.3323 22.6333 97.1656 22.8C96.8656 23.0333 96.5323 23.2833 96.1656 23.55C95.8323 23.7833 95.499 24 95.1656 24.2C95.0323 24.3 94.8823 24.4 94.7156 24.5C94.5823 24.6 94.449 24.7167 94.3156 24.85L93.8656 25.55C93.8323 25.6167 93.7823 25.65 93.7156 25.65C93.6823 25.6167 93.5823 25.6667 93.4156 25.8C93.3823 25.8333 93.3656 25.9 93.3656 26C93.3656 26.0667 93.3323 26.1333 93.2656 26.2C93.2323 26.3 93.1823 26.3833 93.1156 26.45C93.049 26.4833 93.0156 26.5333 93.0156 26.6C92.9823 26.7 92.9156 26.7667 92.8156 26.8C92.749 26.8 92.6823 26.8333 92.6156 26.9C92.5823 26.9333 92.5656 26.9833 92.5656 27.05C92.599 27.1167 92.599 27.1833 92.5656 27.25L92.0156 28.3C91.949 28.5 91.849 28.6167 91.7156 28.65C91.6823 28.6833 91.6323 28.6667 91.5656 28.6C91.499 28.5667 91.449 28.5833 91.4156 28.65C91.4156 28.7167 91.4323 28.8167 91.4656 28.95C91.5323 29.0833 91.5156 29.1833 91.4156 29.25C91.3156 29.3167 91.2156 29.45 91.1156 29.65C91.0156 29.8833 90.9323 30.05 90.8656 30.15C90.7656 30.2833 90.649 30.3667 90.5156 30.4C90.4156 30.4333 90.3156 30.5167 90.2156 30.65C90.1823 30.6833 90.0656 30.8167 89.8656 31.05C89.6656 31.3167 89.5156 31.3333 89.4156 31.1ZM95.323 42.2C94.823 42.2 94.3897 42.15 94.023 42.05C93.7897 41.9833 93.5564 41.9 93.323 41.8C93.0897 41.7 92.8397 41.5833 92.573 41.45L92.473 41.4C92.3397 41.3333 92.1897 41.2333 92.023 41.1C91.8564 41 91.6897 40.9167 91.523 40.85C91.3897 40.8167 91.2064 40.7167 90.973 40.55C90.8064 40.4167 90.7064 40.2833 90.673 40.15C90.6064 40.0167 90.623 39.9333 90.723 39.9C90.7564 39.9 90.8064 39.9167 90.873 39.95C90.9397 40.0167 91.0064 40.0667 91.073 40.1C91.1397 40.1333 91.223 40.1833 91.323 40.25C91.3897 40.3167 91.4564 40.3667 91.523 40.4C91.6897 40.4667 91.8397 40.5167 91.973 40.55C92.073 40.6167 92.1897 40.6833 92.323 40.75C92.623 40.8833 92.8397 40.9667 92.973 41C93.1064 41.0333 93.3064 41.0667 93.573 41.1L94.223 41.15C95.9897 41.2833 97.473 40.95 98.673 40.15C99.8397 39.35 100.823 38.5 101.623 37.6C101.723 37.3333 101.823 37.0833 101.923 36.85C102.056 36.65 102.19 36.4833 102.323 36.35C102.356 36.3167 102.39 36.3333 102.423 36.4C102.49 36.5 102.54 36.5333 102.573 36.5C102.64 36.4 102.673 36.2333 102.673 36C102.706 35.8 102.773 35.65 102.873 35.55C102.906 35.5167 102.94 35.55 102.973 35.65C103.04 35.75 103.09 35.7833 103.123 35.75C103.19 35.6833 103.223 35.55 103.223 35.35C103.256 35.15 103.29 35.0333 103.323 35C103.656 34.5333 103.956 34.1 104.223 33.7C104.49 33.3 104.79 32.8167 105.123 32.25C105.423 31.7833 105.773 31.1833 106.173 30.45C106.606 29.75 106.99 29.1 107.323 28.5C107.656 27.9667 107.906 27.4 108.073 26.8L108.223 26.25C108.39 25.6167 108.723 24.75 109.223 23.65C109.756 22.5167 110.373 21.3 111.073 20C111.806 18.6667 112.54 17.4 113.273 16.2C113.44 16 113.573 15.8333 113.673 15.7C113.773 15.5667 113.923 15.4 114.123 15.2C114.19 15.1667 114.323 15.0167 114.523 14.75C114.723 14.4833 114.923 14.2167 115.123 13.95C115.356 13.65 115.49 13.4833 115.523 13.45C116.49 12.65 117.556 12.0167 118.723 11.55C119.923 11.05 120.856 10.8 121.523 10.8C121.79 10.8 121.973 10.8 122.073 10.8C122.206 10.7667 122.373 10.7667 122.573 10.8L122.923 10.85C123.056 10.8833 123.173 10.9333 123.273 11C123.406 11.0333 123.54 11.0667 123.673 11.1C123.74 11.1333 123.823 11.1833 123.923 11.25C124.023 11.3167 124.106 11.3667 124.173 11.4C124.306 11.5 124.373 11.6167 124.373 11.75C124.373 11.85 124.34 11.9167 124.273 11.95C124.24 11.9833 124.19 11.9833 124.123 11.95C124.09 11.8833 124.04 11.85 123.973 11.85C123.906 11.85 123.84 11.8333 123.773 11.8C123.706 11.7667 123.64 11.7333 123.573 11.7C123.44 11.7 123.323 11.6833 123.223 11.65C123.123 11.6167 123.023 11.5833 122.923 11.55C122.79 11.5167 122.673 11.5 122.573 11.5C122.473 11.5 122.39 11.5 122.323 11.5C122.19 11.5 122.056 11.5167 121.923 11.55C121.89 11.55 121.79 11.5667 121.623 11.6C121.49 11.6 121.39 11.6167 121.323 11.65C119.79 12.0167 118.54 12.7167 117.573 13.75C116.606 14.7833 115.74 15.8333 114.973 16.9C114.84 17.0667 114.656 17.2833 114.423 17.55C114.223 17.7833 114.09 17.9333 114.023 18C113.99 18.0667 113.84 18.3 113.573 18.7C113.306 19.0667 113.04 19.45 112.773 19.85C112.54 20.2167 112.406 20.4167 112.373 20.45C112.34 20.4833 112.273 20.5 112.173 20.5C112.106 20.5 112.056 20.5167 112.023 20.55L110.823 22.95L110.323 23.9L109.673 25.2C109.34 25.8333 109.04 26.4833 108.773 27.15C108.506 27.7833 108.29 28.4 108.123 29C108.023 29.2333 107.973 29.5 107.973 29.8C107.973 30.1 107.89 30.2833 107.723 30.35C107.623 30.3833 107.54 30.3333 107.473 30.2C107.406 30.0667 107.373 30.1833 107.373 30.55C107.44 30.5833 107.44 30.65 107.373 30.75C107.34 30.85 107.323 30.9333 107.323 31C107.356 31.0667 107.373 31.1667 107.373 31.3C107.373 31.4667 107.306 31.6167 107.173 31.75C107.073 31.8833 106.99 32.0333 106.923 32.2C106.856 32.3333 106.773 32.3667 106.673 32.3C106.573 32.2667 106.49 32.25 106.423 32.25L106.373 32.35C106.373 32.45 106.423 32.6833 106.523 33.05C106.523 33.25 106.423 33.35 106.223 33.35H106.073C106.04 34.05 105.906 34.4667 105.673 34.6L105.323 34.85L105.223 35.05C105.023 35.45 104.873 35.6333 104.773 35.6L104.623 36C104.59 36.1 104.506 36.1833 104.373 36.25C104.273 36.3167 104.19 36.4 104.123 36.5C104.123 36.5333 104.106 36.55 104.073 36.55C104.073 36.55 104.073 36.5667 104.073 36.6C104.073 37 103.89 37.4 103.523 37.8C103.19 38.2 102.84 38.55 102.473 38.85C102.406 38.9833 102.323 39.1167 102.223 39.25C102.123 39.3833 102.006 39.5 101.873 39.6C101.706 39.7667 101.506 39.8667 101.273 39.9C101.073 39.9333 100.873 40.0333 100.673 40.2C100.606 40.2333 100.573 40.3167 100.573 40.45C100.606 40.6167 100.59 40.7167 100.523 40.75C99.7897 41.2167 98.9397 41.5667 97.973 41.8C97.0064 42.0667 96.123 42.2 95.323 42.2ZM103.673 27.95C103.24 27.95 102.873 27.7 102.573 27.2C102.273 26.6667 102.19 26.2667 102.323 26C102.356 25.9333 102.39 25.85 102.423 25.75C102.49 25.6167 102.54 25.5333 102.573 25.5C102.64 25.4333 102.673 25.4167 102.673 25.45C102.706 25.45 102.74 25.4333 102.773 25.4C102.806 25.3333 102.79 25.2833 102.723 25.25C102.69 25.1833 102.69 25.1333 102.723 25.1L103.323 22.85C103.323 22.8167 103.34 22.7833 103.373 22.75C103.406 22.7167 103.423 22.6833 103.423 22.65L103.523 21.75C103.523 21.7167 103.556 21.7167 103.623 21.75C103.69 21.75 103.74 21.7333 103.773 21.7C103.84 21.5333 103.823 21.45 103.723 21.45C103.623 21.45 103.573 21.4333 103.573 21.4C103.606 21.1333 103.656 20.95 103.723 20.85C103.79 20.75 103.84 20.5833 103.873 20.35L104.023 19.5C104.023 19.5333 104.04 19.6667 104.073 19.9C104.106 20.1 104.19 20.2 104.323 20.2C104.49 20.2 104.54 20.1667 104.473 20.1C104.406 20.0333 104.356 19.95 104.323 19.85C104.29 19.6833 104.323 19.55 104.423 19.45C104.456 19.4167 104.523 19.4833 104.623 19.65C104.723 19.7833 104.773 19.85 104.773 19.85C104.806 19.7833 104.823 19.7 104.823 19.6C104.823 19.5 104.79 19.4333 104.723 19.4C104.59 19.3 104.44 19.2333 104.273 19.2C104.14 19.1333 104.073 19.0667 104.073 19C104.073 18.9 104.09 18.8 104.123 18.7C104.123 18.6667 104.14 18.6333 104.173 18.6C104.206 18.5667 104.223 18.5333 104.223 18.5C104.223 18.4333 104.19 18.4 104.123 18.4C104.09 18.4 104.073 18.3833 104.073 18.35V17.85C104.073 17.75 104.073 17.65 104.073 17.55C104.073 17.4167 104.04 17.2833 103.973 17.15C103.873 16.9167 103.723 16.7167 103.523 16.55C103.323 16.3833 103.073 16.3 102.773 16.3H102.723L102.623 16.4H102.523C102.29 16.5667 102.023 16.7333 101.723 16.9C101.456 17.0333 101.223 17.1333 101.023 17.2L100.923 17.25C100.89 17.2833 100.84 17.3 100.773 17.3C100.64 17.3 100.54 17.2333 100.473 17.1C100.44 16.9667 100.49 16.8833 100.623 16.85C100.89 16.6833 101.173 16.55 101.473 16.45C101.773 16.35 102.04 16.2 102.273 16C102.34 15.8333 102.506 15.7 102.773 15.6C102.84 15.5333 102.89 15.5167 102.923 15.55C102.956 15.5833 102.99 15.6 103.023 15.6C103.19 15.6 103.29 15.55 103.323 15.45C103.39 15.3167 103.44 15.2833 103.473 15.35H103.973C104.706 15.35 105.273 15.65 105.673 16.25C106.073 16.8167 106.256 17.5833 106.223 18.55C106.223 18.5833 106.173 18.6333 106.073 18.7C106.006 18.7333 105.973 18.7833 105.973 18.85C105.973 18.8833 106.006 18.9 106.073 18.9C106.173 18.8667 106.223 18.8833 106.223 18.95V19.15C106.223 19.45 106.206 19.6167 106.173 19.65C106.106 20.3833 105.94 21.15 105.673 21.95C105.44 22.7167 105.19 23.4667 104.923 24.2C104.823 24.2 104.756 24.25 104.723 24.35C104.69 24.45 104.64 24.5 104.573 24.5C104.473 24.5 104.373 24.4667 104.273 24.4C104.206 24.3 104.173 24.3 104.173 24.4C104.173 24.5333 104.24 24.6333 104.373 24.7C104.506 24.7333 104.59 24.7667 104.623 24.8C104.656 24.8333 104.723 24.85 104.823 24.85C104.923 24.85 105.023 24.8167 105.123 24.75C105.223 24.6833 105.323 24.6167 105.423 24.55C105.59 24.4167 105.806 24.2333 106.073 24C106.373 23.7333 106.64 23.5 106.873 23.3C107.106 23.0667 107.223 22.95 107.223 22.95C107.156 22.8833 107.206 22.8167 107.373 22.75L107.623 22.45C107.656 22.2833 107.756 22.1 107.923 21.9C108.09 21.7 108.24 21.5833 108.373 21.55L108.473 21.35C108.506 21.35 108.54 21.3667 108.573 21.4C108.606 21.4 108.64 21.3833 108.673 21.35C108.706 21.35 108.706 21.3167 108.673 21.25C108.673 21.1833 108.69 21.15 108.723 21.15L108.973 20.8C109.04 20.6 109.106 20.4833 109.173 20.45C109.14 20.35 109.173 20.2833 109.273 20.25C109.34 20.25 109.406 20.2667 109.473 20.3C109.573 20.3 109.623 20.2333 109.623 20.1C109.623 20.0333 109.64 19.95 109.673 19.85C109.706 19.7167 109.79 19.6667 109.923 19.7L109.973 19.6C109.973 19.5667 110.04 19.5167 110.173 19.45C110.306 19.35 110.39 19.2833 110.423 19.25L110.673 18.9C110.773 18.7333 110.873 18.65 110.973 18.65C111.073 18.6167 111.14 18.6 111.173 18.6C111.206 18.6 111.223 18.6333 111.223 18.7C111.223 18.9333 111.106 19.1667 110.873 19.4L110.473 19.85C110.44 19.8833 110.406 19.9 110.373 19.9C110.34 19.9 110.306 19.9333 110.273 20C110.24 20.0333 110.206 20.0833 110.173 20.15C110.14 20.2167 110.106 20.2833 110.073 20.35L109.673 20.8L106.973 24C106.673 24.3333 106.473 24.55 106.373 24.65C106.306 24.75 106.206 24.9 106.073 25.1C106.04 25.1333 105.99 25.1333 105.923 25.1C105.856 25.0667 105.79 25.0833 105.723 25.15L105.673 25.45L105.423 25.7C105.39 25.7333 105.406 25.75 105.473 25.75C105.573 25.75 105.606 25.7667 105.573 25.8L104.873 27C104.506 27.6333 104.106 27.95 103.673 27.95Z" fill="black"/>
</svg>
